<?xml version="1.0" encoding="UTF-8"?>
<svg data-bbox="0 0 220 87" xmlns="http://www.w3.org/2000/svg" viewBox="0 -66.5 220 220" height="800" width="800" data-type="color">
    <g>
        <path fill="#0D1927" d="M3.172 25.842c2.115 2.337 4.653 4.249 6.557 6.798 16.285 22.73 39.55 33.989 65.353 40.15 8.883 2.123 19.035 1.911 28.129 0 26.014-5.1 49.702-15.933 70.217-32.928 5.922-4.885 10.998-11.046 15.228-18.056-2.326.85-4.864 1.7-7.191 2.761-6.768 2.974-13.536 6.161-20.515 8.71-2.961 1.062-6.557 1.062-9.941.85-1.269 0-3.172-1.912-3.384-3.187s1.058-3.61 2.115-3.823c17.978-5.524 33.629-16.145 49.914-25.28 5.71-3.186 9.306-2.336 11.844 3.4 6.133 14.232 8.883 29.315 8.46 44.822 0 .425-.846 1.062-2.115 2.337-12.479-4.674-8.672-18.27-14.805-29.103-1.481 2.55-2.538 4.673-3.807 6.373-26.649 32.927-61.969 50.346-103 56.719-6.133 1.062-12.9.637-19.246-.425-23.264-4.036-43.991-13.808-61.123-30.165-5.499-5.311-9.517-12.321-13.536-18.906C.634 34.339.634 30.728 0 27.754z" data-color="1"/>
    </g>
</svg>
