<?xml version="1.0" encoding="UTF-8"?>
<svg data-bbox="0 0 250.999 81" xmlns="http://www.w3.org/2000/svg" viewBox="0 -85 251 251" height="800" width="800" data-type="color">
    <g>
        <g clip-path="url(#11b5407a-b614-4a8e-aa31-c86c2e3dcc87)">
            <path fill="#0D1927" d="M14.444 26.026c1.904 8.195 3.597 16.18 5.712 25.214-5.5-.63-8.675-3.992-9.944-7.774C6.403 32.119 2.806 20.563.267 8.796-1.214 2.072 3.653-1.5 10.212.6c11.002 3.362 21.793 7.354 32.796 11.136.635.21 1.481.42 1.693.84 1.058 1.472 1.693 3.153 2.539 4.834-1.481.63-2.962 2.1-4.232 1.89-4.443-.63-8.675-1.68-12.907-2.52-2.327-.421-4.443-1.051-7.829 0 2.328 2.52 4.655 5.252 6.983 7.774C79.613 74.565 155.15 85.07 217.78 51.24c8.04-4.412 15.446-9.665 23.274-14.498 2.751-1.681 5.502-3.152 8.252-4.833.635.42 1.058 1.05 1.693 1.471-.635 1.891-.846 4.413-2.327 5.673-4.655 4.413-9.31 8.826-14.6 12.608C181.598 89.483 108.6 90.954 52.105 54.813c-10.79-6.934-20.312-15.76-30.257-23.744-2.116-1.681-3.808-3.572-5.713-5.464-.423-.21-1.058 0-1.692.42" data-color="1"/>
        </g>
        <defs fill="none">
            <clipPath id="11b5407a-b614-4a8e-aa31-c86c2e3dcc87">
                <path fill="#ffffff" d="M251 0v81H0V0z"/>
            </clipPath>
        </defs>
    </g>
</svg>
